M48
; DRILL file {KiCad 9.0.7} date 2026-04-07T16:02:41-0600
; FORMAT={-:-/ absolute / metric / decimal}
; #@! TF.CreationDate,2026-04-07T16:02:41-06:00
; #@! TF.GenerationSoftware,Kicad,Pcbnew,9.0.7
; #@! TF.FileFunction,Plated,1,2,PTH
FMAT,2
METRIC
; #@! TA.AperFunction,Plated,PTH,ViaDrill
T1C0.300
; #@! TA.AperFunction,Plated,PTH,ComponentDrill
T2C0.500
; #@! TA.AperFunction,Plated,PTH,ComponentDrill
T3C0.750
; #@! TA.AperFunction,Plated,PTH,ComponentDrill
T4C0.800
; #@! TA.AperFunction,Plated,PTH,ComponentDrill
T5C0.850
; #@! TA.AperFunction,Plated,PTH,ComponentDrill
T6C0.889
; #@! TA.AperFunction,Plated,PTH,ComponentDrill
T7C0.991
; #@! TA.AperFunction,Plated,PTH,ComponentDrill
T8C1.100
; #@! TA.AperFunction,Plated,PTH,ComponentDrill
T9C1.190
; #@! TA.AperFunction,Plated,PTH,ComponentDrill
T10C1.702
; #@! TA.AperFunction,Plated,PTH,ComponentDrill
T11C3.500
%
G90
G05
T1
X146.75Y-108.75
X149.25Y-105.25
X149.375Y-106.875
X154.2Y-102.05
X154.5Y-94.5
X155.346Y-95.361
X158.0Y-94.0
X158.0Y-95.0
X158.61Y-96.0
X158.91Y-93.2
X161.4Y-94.4
X162.8Y-94.2
X163.5Y-95.0
X166.0Y-92.0
X167.5Y-93.0
X168.0Y-97.4
X171.15Y-92.35
X172.7Y-85.1
T2
X146.846Y-75.63
X154.897Y-75.5
X159.5Y-87.763
X161.8Y-81.263
X161.8Y-87.763
X162.397Y-70.5
X162.397Y-74.0
X174.4Y-66.8
T3
X167.48Y-83.1
X167.48Y-85.6
X169.98Y-84.35
X169.98Y-86.85
T4
X152.732Y-106.892
X152.732Y-109.432
X152.732Y-111.972
X152.732Y-114.512
X152.732Y-117.052
X152.732Y-119.593
X152.732Y-122.132
X160.352Y-106.892
X160.352Y-109.432
X160.352Y-111.972
X160.352Y-114.512
X160.352Y-117.052
X160.352Y-119.593
X160.352Y-122.132
T5
X147.0Y-94.2
X147.0Y-96.575
X147.0Y-98.95
X147.0Y-101.325
X147.0Y-103.7
T6
X157.5Y-127.5
X161.0Y-127.5
X161.8Y-77.6
X164.5Y-127.5
X168.5Y-76.5
T7
X165.745Y-62.5
X176.745Y-62.5
T8
X147.1Y-84.7
X147.1Y-89.2
X153.6Y-84.7
X153.6Y-89.2
T9
X171.42Y-108.5
X171.42Y-117.52
X171.46Y-100.02
X173.96Y-108.5
X173.96Y-117.52
X174.0Y-100.02
X176.5Y-108.5
X176.5Y-117.52
X176.54Y-100.02
T10
X168.745Y-72.5
X173.745Y-72.5
T11
X147.7Y-127.2
X161.0Y-65.0
X175.1Y-127.1
M30
