%TF.GenerationSoftware,KiCad,Pcbnew,9.0.7*%
%TF.CreationDate,2026-04-07T16:02:38-06:00*%
%TF.ProjectId,Servo_Board,53657276-6f5f-4426-9f61-72642e6b6963,rev?*%
%TF.SameCoordinates,Original*%
%TF.FileFunction,Soldermask,Bot*%
%TF.FilePolarity,Negative*%
%FSLAX46Y46*%
G04 Gerber Fmt 4.6, Leading zero omitted, Abs format (unit mm)*
G04 Created by KiCad (PCBNEW 9.0.7) date 2026-04-07 16:02:38*
%MOMM*%
%LPD*%
G01*
G04 APERTURE LIST*
G04 Aperture macros list*
%AMRoundRect*
0 Rectangle with rounded corners*
0 $1 Rounding radius*
0 $2 $3 $4 $5 $6 $7 $8 $9 X,Y pos of 4 corners*
0 Add a 4 corners polygon primitive as box body*
4,1,4,$2,$3,$4,$5,$6,$7,$8,$9,$2,$3,0*
0 Add four circle primitives for the rounded corners*
1,1,$1+$1,$2,$3*
1,1,$1+$1,$4,$5*
1,1,$1+$1,$6,$7*
1,1,$1+$1,$8,$9*
0 Add four rect primitives between the rounded corners*
20,1,$1+$1,$2,$3,$4,$5,0*
20,1,$1+$1,$4,$5,$6,$7,0*
20,1,$1+$1,$6,$7,$8,$9,0*
20,1,$1+$1,$8,$9,$2,$3,0*%
G04 Aperture macros list end*
%ADD10RoundRect,0.381000X0.381000X0.381000X-0.381000X0.381000X-0.381000X-0.381000X0.381000X-0.381000X0*%
%ADD11C,2.000000*%
%ADD12RoundRect,0.165000X-0.660000X-0.660000X0.660000X-0.660000X0.660000X0.660000X-0.660000X0.660000X0*%
%ADD13RoundRect,0.250000X-0.620000X-0.845000X0.620000X-0.845000X0.620000X0.845000X-0.620000X0.845000X0*%
%ADD14O,1.740000X2.190000*%
%ADD15RoundRect,0.381000X-0.381000X-0.381000X0.381000X-0.381000X0.381000X0.381000X-0.381000X0.381000X0*%
%ADD16RoundRect,0.900000X-2.100000X-2.100000X2.100000X-2.100000X2.100000X2.100000X-2.100000X2.100000X0*%
%ADD17C,2.209800*%
%ADD18C,1.498600*%
%ADD19RoundRect,0.165000X-0.660000X0.660000X-0.660000X-0.660000X0.660000X-0.660000X0.660000X0.660000X0*%
%ADD20RoundRect,0.250000X-0.550000X-0.550000X0.550000X-0.550000X0.550000X0.550000X-0.550000X0.550000X0*%
%ADD21C,1.600000*%
%ADD22RoundRect,0.457620X1.067780X-1.067780X1.067780X1.067780X-1.067780X1.067780X-1.067780X-1.067780X0*%
%ADD23RoundRect,0.225000X0.525000X-0.525000X0.525000X0.525000X-0.525000X0.525000X-0.525000X-0.525000X0*%
%ADD24RoundRect,0.142500X0.332500X0.932500X-0.332500X0.932500X-0.332500X-0.932500X0.332500X-0.932500X0*%
%ADD25RoundRect,0.135000X0.315000X0.940000X-0.315000X0.940000X-0.315000X-0.940000X0.315000X-0.940000X0*%
%ADD26RoundRect,0.322500X1.302500X0.752500X-1.302500X0.752500X-1.302500X-0.752500X1.302500X-0.752500X0*%
%ADD27RoundRect,0.300000X0.700000X-2.200000X0.700000X2.200000X-0.700000X2.200000X-0.700000X-2.200000X0*%
%ADD28RoundRect,0.381000X0.381000X-0.381000X0.381000X0.381000X-0.381000X0.381000X-0.381000X-0.381000X0*%
%ADD29RoundRect,0.381000X-0.381000X0.381000X-0.381000X-0.381000X0.381000X-0.381000X0.381000X0.381000X0*%
%ADD30RoundRect,0.120000X0.880000X0.280000X-0.880000X0.280000X-0.880000X-0.280000X0.880000X-0.280000X0*%
G04 APERTURE END LIST*
D10*
%TO.C,R1*%
X154897000Y-75500000D03*
%TD*%
D11*
%TO.C,SW2*%
X147100000Y-84700000D03*
X153600000Y-84700000D03*
X147100000Y-89200000D03*
X153600000Y-89200000D03*
%TD*%
D12*
%TO.C,TP2*%
X161000000Y-127500000D03*
%TD*%
D13*
%TO.C,J1*%
X171460000Y-100020000D03*
D14*
X174000000Y-100020000D03*
X176540000Y-100020000D03*
%TD*%
D12*
%TO.C,TP1*%
X164500000Y-127500000D03*
%TD*%
%TO.C,TP5*%
X161800000Y-77600000D03*
%TD*%
D15*
%TO.C,C3*%
X162397000Y-74000000D03*
%TD*%
D16*
%TO.C,GND*%
X161000000Y-65000000D03*
%TD*%
%TO.C,GND*%
X175100000Y-127100000D03*
%TD*%
%TO.C,GND*%
X147700000Y-127200000D03*
%TD*%
D17*
%TO.C,J4*%
X173744751Y-72500000D03*
X168744751Y-72500000D03*
D18*
X176744750Y-62500000D03*
X165744752Y-62500000D03*
%TD*%
D15*
%TO.C,C2*%
X162397000Y-70500000D03*
%TD*%
D12*
%TO.C,TP4*%
X168500000Y-76500000D03*
%TD*%
D19*
%TO.C,J2*%
X147000000Y-94200000D03*
X147000000Y-96575000D03*
X147000000Y-98950000D03*
X147000000Y-101325000D03*
X147000000Y-103700000D03*
%TD*%
D20*
%TO.C,SW3*%
X152732500Y-106892500D03*
D21*
X152732500Y-109432500D03*
X152732500Y-111972500D03*
X152732500Y-114512500D03*
X152732500Y-117052500D03*
X152732500Y-119592500D03*
X152732500Y-122132500D03*
X160352500Y-122132500D03*
X160352500Y-119592500D03*
X160352500Y-117052500D03*
X160352500Y-114512500D03*
X160352500Y-111972500D03*
X160352500Y-109432500D03*
X160352500Y-106892500D03*
%TD*%
D10*
%TO.C,C1*%
X146846000Y-75630000D03*
%TD*%
D13*
%TO.C,J6*%
X171420000Y-117520000D03*
D14*
X173960000Y-117520000D03*
X176500000Y-117520000D03*
%TD*%
D12*
%TO.C,TP3*%
X157500000Y-127500000D03*
%TD*%
D22*
%TO.C,J3*%
X176000000Y-90050000D03*
X176000000Y-79800000D03*
D23*
X167480000Y-83100000D03*
X167480000Y-85600000D03*
X169980000Y-84350000D03*
X169980000Y-86850000D03*
%TD*%
D13*
%TO.C,J5*%
X171420000Y-108500000D03*
D14*
X173960000Y-108500000D03*
X176500000Y-108500000D03*
%TD*%
D15*
%TO.C,R2*%
X163109000Y-117100000D03*
X165903000Y-117100000D03*
%TD*%
%TO.C,R3*%
X163006000Y-113600000D03*
X165800000Y-113600000D03*
%TD*%
D24*
%TO.C,U2*%
X164100000Y-87762500D03*
D25*
X161800000Y-87762500D03*
D26*
X161800000Y-81262500D03*
D25*
X159500000Y-87762500D03*
%TD*%
D27*
%TO.C,C_Decoupling*%
X174400000Y-66800000D03*
X168400000Y-66800000D03*
%TD*%
D28*
%TO.C,C4*%
X158700000Y-81094000D03*
X158700000Y-78300000D03*
%TD*%
D15*
%TO.C,R4*%
X163006000Y-110100000D03*
X165800000Y-110100000D03*
%TD*%
D28*
%TO.C,C5*%
X164600000Y-81194000D03*
X164600000Y-78400000D03*
%TD*%
D15*
%TO.C,R5*%
X163106000Y-124100000D03*
X165900000Y-124100000D03*
%TD*%
%TO.C,R7*%
X163006000Y-120600000D03*
X165800000Y-120600000D03*
%TD*%
D29*
%TO.C,R6*%
X153000000Y-125103000D03*
X153000000Y-127897000D03*
%TD*%
D30*
%TO.C,SW1*%
X146200000Y-107400000D03*
X146200000Y-110050000D03*
X146200000Y-112700000D03*
%TD*%
M02*
