%TF.GenerationSoftware,KiCad,Pcbnew,9.0.7*%
%TF.CreationDate,2026-04-08T15:27:21-06:00*%
%TF.ProjectId,I2C_Power_DistBoard,4932435f-506f-4776-9572-5f4469737442,rev?*%
%TF.SameCoordinates,Original*%
%TF.FileFunction,Legend,Bot*%
%TF.FilePolarity,Positive*%
%FSLAX46Y46*%
G04 Gerber Fmt 4.6, Leading zero omitted, Abs format (unit mm)*
G04 Created by KiCad (PCBNEW 9.0.7) date 2026-04-08 15:27:21*
%MOMM*%
%LPD*%
G01*
G04 APERTURE LIST*
%ADD10C,0.508000*%
G04 APERTURE END LIST*
D10*
%TO.C,J10*%
X215031000Y-31633200D02*
G75*
G02*
X214269000Y-31633200I-381000J0D01*
G01*
X214269000Y-31633200D02*
G75*
G02*
X215031000Y-31633200I381000J0D01*
G01*
%TO.C,J7*%
X215031000Y-61603200D02*
G75*
G02*
X214269000Y-61603200I-381000J0D01*
G01*
X214269000Y-61603200D02*
G75*
G02*
X215031000Y-61603200I381000J0D01*
G01*
%TO.C,J8*%
X215031000Y-76588200D02*
G75*
G02*
X214269000Y-76588200I-381000J0D01*
G01*
X214269000Y-76588200D02*
G75*
G02*
X215031000Y-76588200I381000J0D01*
G01*
%TO.C,J9*%
X215031000Y-91573200D02*
G75*
G02*
X214269000Y-91573200I-381000J0D01*
G01*
X214269000Y-91573200D02*
G75*
G02*
X215031000Y-91573200I381000J0D01*
G01*
%TO.C,J6*%
X215031000Y-46618200D02*
G75*
G02*
X214269000Y-46618200I-381000J0D01*
G01*
X214269000Y-46618200D02*
G75*
G02*
X215031000Y-46618200I381000J0D01*
G01*
%TO.C,J4*%
X105203550Y-91038400D02*
G75*
G02*
X104441550Y-91038400I-381000J0D01*
G01*
X104441550Y-91038400D02*
G75*
G02*
X105203550Y-91038400I381000J0D01*
G01*
%TO.C,J3*%
X105203550Y-76053400D02*
G75*
G02*
X104441550Y-76053400I-381000J0D01*
G01*
X104441550Y-76053400D02*
G75*
G02*
X105203550Y-76053400I381000J0D01*
G01*
%TO.C,J13*%
X188214201Y-37250000D02*
G75*
G02*
X187452201Y-37250000I-381000J0D01*
G01*
X187452201Y-37250000D02*
G75*
G02*
X188214201Y-37250000I381000J0D01*
G01*
%TO.C,J1*%
X167030751Y-42270076D02*
G75*
G02*
X166268751Y-42270076I-381000J0D01*
G01*
X166268751Y-42270076D02*
G75*
G02*
X167030751Y-42270076I381000J0D01*
G01*
%TO.C,J11*%
X105203550Y-46083400D02*
G75*
G02*
X104441550Y-46083400I-381000J0D01*
G01*
X104441550Y-46083400D02*
G75*
G02*
X105203550Y-46083400I381000J0D01*
G01*
%TO.C,J5*%
X105203550Y-106023400D02*
G75*
G02*
X104441550Y-106023400I-381000J0D01*
G01*
X104441550Y-106023400D02*
G75*
G02*
X105203550Y-106023400I381000J0D01*
G01*
%TO.C,J2*%
X105203550Y-61068400D02*
G75*
G02*
X104441550Y-61068400I-381000J0D01*
G01*
X104441550Y-61068400D02*
G75*
G02*
X105203550Y-61068400I381000J0D01*
G01*
%TO.C,J12*%
X117997600Y-37500000D02*
G75*
G02*
X117235600Y-37500000I-381000J0D01*
G01*
X117235600Y-37500000D02*
G75*
G02*
X117997600Y-37500000I381000J0D01*
G01*
%TD*%
M02*
