M48
; DRILL file {KiCad 9.0.7} date 2026-04-08T15:27:13-0600
; FORMAT={-:-/ absolute / metric / decimal}
; #@! TF.CreationDate,2026-04-08T15:27:13-06:00
; #@! TF.GenerationSoftware,Kicad,Pcbnew,9.0.7
; #@! TF.FileFunction,NonPlated,1,2,NPTH
FMAT,2
METRIC
; #@! TA.AperFunction,NonPlated,NPTH,ComponentDrill
T1C3.000
%
G90
G05
T1
X98.75Y-109.25
X98.75Y-119.5
X98.75Y-124.53
X98.75Y-134.78
X98.75Y-140.01
X98.75Y-150.26
X117.225Y-151.45
X127.475Y-151.45
X132.325Y-151.45
X142.575Y-151.45
X147.425Y-151.45
X157.675Y-151.45
X162.525Y-151.45
X172.775Y-151.45
X177.625Y-151.45
X187.875Y-151.45
X192.725Y-151.45
X202.975Y-151.45
X220.485Y-139.905
X220.485Y-150.155
X220.675Y-109.925
X220.675Y-120.175
X220.675Y-124.815
X220.675Y-135.065
M30
