M48
; DRILL file {KiCad 9.0.7} date 2026-04-08T15:27:13-0600
; FORMAT={-:-/ absolute / metric / decimal}
; #@! TF.CreationDate,2026-04-08T15:27:13-06:00
; #@! TF.GenerationSoftware,Kicad,Pcbnew,9.0.7
; #@! TF.FileFunction,Plated,1,2,PTH
FMAT,2
METRIC
; #@! TA.AperFunction,Plated,PTH,ComponentDrill
T1C0.750
; #@! TA.AperFunction,Plated,PTH,ComponentDrill
T2C0.889
; #@! TA.AperFunction,Plated,PTH,ComponentDrill
T3C0.991
; #@! TA.AperFunction,Plated,PTH,ComponentDrill
T4C1.190
; #@! TA.AperFunction,Plated,PTH,ComponentDrill
T5C1.702
; #@! TA.AperFunction,Plated,PTH,ComponentDrill
T6C3.300
%
G90
G05
T1
X104.77Y-112.45
X104.77Y-114.95
X104.77Y-127.73
X104.77Y-130.23
X104.77Y-143.21
X104.77Y-145.71
X107.27Y-113.7
X107.27Y-116.2
X107.27Y-128.98
X107.27Y-131.48
X107.27Y-144.46
X107.27Y-146.96
X120.425Y-145.43
X121.675Y-142.93
X122.925Y-145.43
X124.175Y-142.93
X135.525Y-145.43
X136.775Y-142.93
X138.025Y-145.43
X139.275Y-142.93
X150.625Y-145.43
X151.875Y-142.93
X153.125Y-145.43
X154.375Y-142.93
X165.725Y-145.43
X166.975Y-142.93
X168.225Y-145.43
X169.475Y-142.93
X180.825Y-145.43
X182.075Y-142.93
X183.325Y-145.43
X184.575Y-142.93
X195.925Y-145.43
X197.175Y-142.93
X198.425Y-145.43
X199.675Y-142.93
X211.965Y-143.205
X211.965Y-145.705
X212.155Y-113.225
X212.155Y-115.725
X212.155Y-128.115
X212.155Y-130.615
X214.465Y-144.455
X214.465Y-146.955
X214.655Y-114.475
X214.655Y-116.975
X214.655Y-129.365
X214.655Y-131.865
T2
X110.75Y-147.0
X111.0Y-113.5
X111.0Y-131.5
X113.29Y-147.0
X113.54Y-113.5
X113.54Y-131.5
X124.25Y-128.68
X124.25Y-131.22
X139.5Y-128.68
X139.5Y-131.22
X144.8Y-43.5
X154.5Y-128.68
X154.5Y-131.22
X169.5Y-128.68
X169.5Y-131.22
X184.75Y-128.71
X184.75Y-131.25
X199.995Y-128.7
X199.995Y-131.24
X206.46Y-143.25
X206.5Y-128.7
X206.53Y-113.23
X209.0Y-143.25
X209.04Y-128.7
X209.07Y-113.23
T3
X99.823Y-33.167
X99.823Y-44.167
X99.823Y-48.152
X99.823Y-59.152
X99.823Y-63.137
X99.823Y-74.137
X99.823Y-78.122
X99.823Y-89.122
X99.823Y-93.107
X99.823Y-104.107
X119.533Y-32.5
X130.533Y-32.5
X154.295Y-32.27
X165.295Y-32.27
X189.75Y-32.25
X200.75Y-32.25
X219.65Y-33.55
X219.65Y-44.55
X219.65Y-48.535
X219.65Y-59.535
X219.65Y-63.52
X219.65Y-74.52
X219.65Y-78.505
X219.65Y-89.505
X219.65Y-93.49
X219.65Y-104.49
T4
X122.03Y-108.65
X122.03Y-111.19
X122.03Y-113.73
X122.03Y-116.27
X198.25Y-108.65
X198.25Y-111.19
X198.25Y-113.73
X198.25Y-116.27
T5
X104.823Y-36.167
X104.823Y-41.167
X104.823Y-51.152
X104.823Y-56.152
X104.823Y-66.137
X104.823Y-71.137
X104.823Y-81.122
X104.823Y-86.122
X104.823Y-96.107
X104.823Y-101.107
X122.533Y-37.5
X127.533Y-37.5
X157.295Y-42.27
X162.295Y-42.27
X192.75Y-37.25
X197.75Y-37.25
X214.65Y-36.55
X214.65Y-41.55
X214.65Y-51.535
X214.65Y-56.535
X214.65Y-66.52
X214.65Y-71.52
X214.65Y-81.505
X214.65Y-86.505
X214.65Y-96.49
X214.65Y-101.49
T6
X122.05Y-45.15
X122.05Y-121.35
X198.25Y-45.15
X198.25Y-121.35
M30
